<svg xmlns="http://www.w3.org/2000/svg"  viewBox="0 0 72 72" width="64px" height="64px"><path d="M36 23c7.18 0 13 5.82 13 13s-5.82 13-13 13-13-5.82-13-13S28.82 23 36 23zM36 41c2.761 0 5-2.239 5-5s-2.239-5-5-5-5 2.239-5 5S33.239 41 36 41zM40 11c0 .732 0 3.268 0 4 0 2.209-1.791 4-4 4s-4-1.791-4-4c0-.732 0-3.268 0-4 0-2.209 1.791-4 4-4S40 8.791 40 11zM56.506 21.151c-.518.518-2.311 2.311-2.828 2.828-1.562 1.562-4.095 1.562-5.657 0s-1.562-4.095 0-5.657c.518-.518 2.311-2.311 2.828-2.828 1.562-1.562 4.095-1.562 5.657 0S58.068 19.589 56.506 21.151zM61 40c-.732 0-3.268 0-4 0-2.209 0-4-1.791-4-4s1.791-4 4-4c.732 0 3.268 0 4 0 2.209 0 4 1.791 4 4S63.209 40 61 40zM50.849 56.506c-.518-.518-2.311-2.311-2.828-2.828-1.562-1.562-1.562-4.095 0-5.657s4.095-1.562 5.657 0c.518.518 2.311 2.311 2.828 2.828 1.562 1.562 1.562 4.095 0 5.657S52.411 58.068 50.849 56.506zM32 61c0-.732 0-3.268 0-4 0-2.209 1.791-4 4-4s4 1.791 4 4c0 .732 0 3.268 0 4 0 2.209-1.791 4-4 4S32 63.209 32 61zM15.494 50.849c.518-.518 2.311-2.311 2.828-2.828 1.562-1.562 4.095-1.562 5.657 0s1.562 4.095 0 5.657c-.518.518-2.311 2.311-2.828 2.828-1.562 1.562-4.095 1.562-5.657 0S13.932 52.411 15.494 50.849zM11 32c.732 0 3.268 0 4 0 2.209 0 4 1.791 4 4s-1.791 4-4 4c-.732 0-3.268 0-4 0-2.209 0-4-1.791-4-4S8.791 32 11 32zM21.151 15.494c.518.518 2.311 2.311 2.828 2.828 1.562 1.562 1.562 4.095 0 5.657s-4.095 1.562-5.657 0c-.518-.518-2.311-2.311-2.828-2.828-1.562-1.562-1.562-4.095 0-5.657S19.589 13.932 21.151 15.494z"/></svg>