<svg xmlns="http://www.w3.org/2000/svg" width="3334" height="3334" viewBox="0 0 3334 3334" version="1.1"><path d="M 2564 572.296 C 2548.791 593.111, 2522.923 619.928, 2482.500 656.787 C 2449.050 687.288, 2419.690 716.490, 2407.594 731.290 C 2375.550 770.495, 2358.410 810.785, 2354.966 855 C 2352.151 891.144, 2350.628 898.568, 2342.503 915.748 C 2331.281 939.476, 2319.532 953.561, 2267.552 1005.604 C 2027.604 1245.843, 1752.963 1518.844, 1744.242 1525.790 C 1711.381 1551.960, 1684.965 1564.071, 1645.718 1570.960 C 1630.876 1573.565, 1617.052 1577.964, 1605.500 1583.756 C 1592.333 1590.358, 1585.529 1595.251, 1576 1604.969 C 1562.082 1619.164, 1553.696 1635.573, 1548.885 1658.026 C 1545.643 1673.152, 1545.640 1701.809, 1548.879 1717 C 1553.270 1737.600, 1561.819 1754.428, 1574.895 1768.215 C 1595.663 1790.111, 1622.479 1801.090, 1659 1802.650 C 1682.291 1803.645, 1698.956 1800.571, 1716.500 1792.044 C 1737.819 1781.683, 1753.341 1765.693, 1763.568 1743.559 C 1768.462 1732.966, 1771.339 1723.449, 1774.923 1706 C 1784.223 1660.712, 1802.347 1626.430, 1839.160 1584.496 C 1845.061 1577.774, 1894.415 1528.054, 1948.834 1474.008 C 2038.312 1385.144, 2341.437 1080.959, 2382 1039.327 C 2400.148 1020.701, 2408.446 1013.944, 2420.500 1007.979 C 2431.704 1002.434, 2438.254 1001.002, 2452.460 1000.990 C 2516.939 1000.934, 2567.595 981.479, 2621.485 936.071 C 2637.518 922.561, 2658.654 901.212, 2691.843 865 C 2725.531 828.245, 2751.310 801.839, 2766 789.041 C 2770.675 784.968, 2774.632 781.322, 2774.793 780.938 C 2774.954 780.555, 2772.479 779.924, 2769.293 779.537 C 2766.107 779.150, 2748.805 776.386, 2730.845 773.395 C 2677.535 764.517, 2651.299 756.898, 2633.399 745.099 C 2603.096 725.123, 2591.102 694.605, 2574.016 594 C 2571.728 580.525, 2569.550 568.743, 2569.178 567.819 C 2568.646 566.499, 2567.533 567.461, 2564 572.296 M 1653.803 739.746 C 1659.470 739.925, 1668.470 739.924, 1673.803 739.745 C 1679.136 739.565, 1674.500 739.419, 1663.500 739.420 C 1652.500 739.421, 1648.136 739.568, 1653.803 739.746 M 2846.493 843.250 C 2819.500 870.500, 2819.500 870.500, 2846.750 843.507 C 2861.738 828.661, 2874 816.398, 2874 816.257 C 2874 815.550, 2871.577 817.927, 2846.493 843.250 M 2255.491 1300.250 C 2233.500 1322.500, 2233.500 1322.500, 2255.750 1300.509 C 2267.988 1288.413, 2278 1278.401, 2278 1278.259 C 2278 1277.549, 2275.926 1279.576, 2255.491 1300.250 M 2041.489 1514.250 C 2024.500 1531.500, 2024.500 1531.500, 2041.750 1514.511 C 2051.238 1505.167, 2059 1497.405, 2059 1497.261 C 2059 1496.548, 2057.273 1498.224, 2041.489 1514.250 M 1650.750 2445.745 C 1655.838 2445.927, 1664.162 2445.927, 1669.250 2445.745 C 1674.338 2445.564, 1670.175 2445.415, 1660 2445.415 C 1649.825 2445.415, 1645.662 2445.564, 1650.750 2445.745" stroke="none" fill="#c51b1c" fill-rule="evenodd"/><path d="M 2588.405 438.419 C 2576.934 441.039, 2564.388 447.526, 2552.622 456.918 C 2542.944 464.644, 2321.441 687.289, 2311.468 699.315 C 2288.975 726.440, 2275.962 752.075, 2270.511 780 C 2269.560 784.869, 2268.472 797.897, 2267.964 810.500 C 2267.477 822.600, 2266.388 835.864, 2265.546 839.975 C 2262.225 856.183, 2255.323 873.099, 2245.746 888.500 C 2234.270 906.957, 2224.122 917.933, 2157.520 983.926 C 2121.759 1019.360, 2007.225 1133.529, 1903 1237.634 C 1798.775 1341.739, 1711.371 1428.703, 1708.769 1430.888 C 1674.969 1459.275, 1645.365 1475.136, 1604.939 1486.517 C 1576.194 1494.610, 1557.209 1502.825, 1537.606 1515.652 C 1490.597 1546.412, 1463.772 1591.265, 1454.864 1654 C 1453.015 1667.022, 1453.274 1703.185, 1455.315 1717.058 C 1464.830 1781.708, 1497.643 1833.229, 1550.500 1866.509 C 1589.245 1890.904, 1642.725 1903.311, 1686.026 1897.951 C 1755.718 1889.324, 1817.990 1844.052, 1848.958 1779.500 C 1855.031 1766.841, 1857.793 1759.111, 1864.493 1736.023 C 1875.550 1697.923, 1887.946 1672.406, 1906.528 1649.500 C 1910.543 1644.550, 1958.017 1596.850, 2012.025 1543.500 C 2066.034 1490.150, 2174.348 1381.925, 2252.723 1303 C 2331.099 1224.075, 2401.586 1153.489, 2409.362 1146.142 C 2434.582 1122.313, 2454.596 1107.583, 2475.587 1097.401 C 2497.828 1086.613, 2518.643 1081.494, 2546.500 1079.960 C 2555.850 1079.445, 2567.253 1078.321, 2571.839 1077.463 C 2596.343 1072.877, 2623.270 1059.246, 2650.188 1037.802 C 2661.510 1028.782, 2891.156 799.230, 2898.094 789.998 C 2910.222 773.860, 2914.180 757.549, 2910.420 739.208 C 2905.744 716.396, 2892.889 697.444, 2876.114 688.629 C 2861.885 681.152, 2845.516 678.695, 2802 677.503 C 2731.616 675.576, 2710.847 671.323, 2696.584 655.918 C 2684.553 642.922, 2680.517 625.820, 2674.980 564.357 C 2671.769 528.712, 2667.512 498.783, 2663.429 483.131 C 2658.447 464.040, 2649.657 452.357, 2634.803 445.085 C 2630.236 442.849, 2623.800 440.310, 2620.500 439.443 C 2612.034 437.218, 2595.913 436.703, 2588.405 438.419 M 2564 572.296 C 2548.791 593.111, 2522.923 619.928, 2482.500 656.787 C 2449.050 687.288, 2419.690 716.490, 2407.594 731.290 C 2375.550 770.495, 2358.410 810.785, 2354.966 855 C 2352.151 891.144, 2350.628 898.568, 2342.503 915.748 C 2331.281 939.476, 2319.532 953.561, 2267.552 1005.604 C 2027.604 1245.843, 1752.963 1518.844, 1744.242 1525.790 C 1711.381 1551.960, 1684.965 1564.071, 1645.718 1570.960 C 1630.876 1573.565, 1617.052 1577.964, 1605.500 1583.756 C 1592.333 1590.358, 1585.529 1595.251, 1576 1604.969 C 1562.082 1619.164, 1553.696 1635.573, 1548.885 1658.026 C 1545.643 1673.152, 1545.640 1701.809, 1548.879 1717 C 1553.270 1737.600, 1561.819 1754.428, 1574.895 1768.215 C 1595.663 1790.111, 1622.479 1801.090, 1659 1802.650 C 1682.291 1803.645, 1698.956 1800.571, 1716.500 1792.044 C 1737.819 1781.683, 1753.341 1765.693, 1763.568 1743.559 C 1768.462 1732.966, 1771.339 1723.449, 1774.923 1706 C 1784.223 1660.712, 1802.347 1626.430, 1839.160 1584.496 C 1845.061 1577.774, 1894.415 1528.054, 1948.834 1474.008 C 2038.312 1385.144, 2341.437 1080.959, 2382 1039.327 C 2400.148 1020.701, 2408.446 1013.944, 2420.500 1007.979 C 2431.704 1002.434, 2438.254 1001.002, 2452.460 1000.990 C 2516.939 1000.934, 2567.595 981.479, 2621.485 936.071 C 2637.518 922.561, 2658.654 901.212, 2691.843 865 C 2725.531 828.245, 2751.310 801.839, 2766 789.041 C 2770.675 784.968, 2774.632 781.322, 2774.793 780.938 C 2774.954 780.555, 2772.479 779.924, 2769.293 779.537 C 2766.107 779.150, 2748.805 776.386, 2730.845 773.395 C 2677.535 764.517, 2651.299 756.898, 2633.399 745.099 C 2603.096 725.123, 2591.102 694.605, 2574.016 594 C 2571.728 580.525, 2569.550 568.743, 2569.178 567.819 C 2568.646 566.499, 2567.533 567.461, 2564 572.296 M 1617 740.599 C 1614.525 740.800, 1605.300 741.445, 1596.500 742.033 C 1532.773 746.289, 1461.919 758.760, 1400.262 776.573 C 1232.597 825.013, 1077.702 922.271, 958.997 1053.643 C 780.558 1251.121, 692.367 1505.947, 715.576 1757 C 733.898 1955.199, 808.527 2139.775, 930.474 2288.500 C 1049.306 2433.424, 1211.463 2540.005, 1392 2591.847 C 1460.972 2611.652, 1526.224 2622.826, 1604 2628.151 C 1643.491 2630.854, 1715.224 2629.612, 1760.500 2625.441 C 1982.697 2604.969, 2178.026 2510.135, 2342.512 2342.868 C 2473.889 2209.270, 2562.277 2030.714, 2594.411 1834 C 2607.268 1755.295, 2610.483 1668.831, 2603.467 1590.500 C 2594.733 1492.991, 2570.815 1398.845, 2533.476 1315 C 2521.243 1287.529, 2494.670 1234.570, 2490.050 1228.450 C 2482.422 1218.346, 2474.266 1214.483, 2462.119 1215.221 C 2452.049 1215.832, 2442.786 1219.756, 2426.921 1230.132 C 2399.132 1248.306, 2381.463 1266.839, 2369.931 1289.908 C 2360.729 1308.313, 2357.532 1324.599, 2358.252 1349.394 C 2358.868 1370.600, 2361.530 1383.821, 2370.125 1408.352 C 2391.838 1470.321, 2399.318 1496.278, 2407.921 1539.500 C 2422.754 1614.021, 2426.506 1685.795, 2419.424 1759.500 C 2394.545 2018.400, 2236.764 2248.947, 2005.054 2364.973 C 1915.562 2409.785, 1821.835 2435.460, 1718 2443.607 C 1691.775 2445.664, 1633.292 2445.941, 1608.500 2444.124 C 1470.089 2433.981, 1349.600 2393.871, 1240 2321.453 C 1181.013 2282.477, 1122.729 2229.680, 1076.674 2173.500 C 1053.347 2145.046, 1026.659 2106.615, 1007.575 2074 C 988.963 2042.191, 964.388 1990.777, 950.934 1955.500 C 926.673 1891.885, 907.964 1815.167, 900.574 1749 C 895.277 1701.574, 895.276 1648.676, 900.572 1600.500 C 913.791 1480.252, 958.762 1362.780, 1031.439 1258.652 C 1070.262 1203.026, 1119.742 1149.335, 1173.674 1104.309 C 1277.735 1017.434, 1402.865 959.833, 1538.112 936.548 C 1584.707 928.526, 1609.889 926.500, 1663 926.500 C 1707.193 926.500, 1717.361 927.029, 1751 931.074 C 1815.688 938.854, 1885.354 957.031, 1948.610 982.634 C 1980.342 995.478, 1979.327 995.168, 1991.500 995.723 C 2026.899 997.339, 2071.311 976.604, 2102.377 943.958 C 2122.505 922.807, 2132.856 900.010, 2131.796 879.169 C 2131.260 868.644, 2128.581 862.688, 2121.335 855.910 C 2112.720 847.852, 2105.780 844.632, 2079.226 836.372 C 2071.375 833.930, 2059 829.205, 2051.726 825.872 C 1981.967 793.905, 1910.896 770.846, 1838.117 756.569 C 1803.853 749.847, 1774.459 745.813, 1731.500 741.936 C 1720.145 740.911, 1626.609 739.819, 1617 740.599 M 1645.961 1119.332 C 1645.708 1119.565, 1638.075 1120.277, 1629 1120.916 C 1563.623 1125.521, 1533.307 1131.021, 1484.700 1147.098 C 1310.042 1204.866, 1175.954 1337.547, 1119.972 1508 C 1107.001 1547.493, 1098.867 1586.871, 1094.358 1632 C 1091.935 1656.244, 1091.927 1708.616, 1094.342 1733 C 1109.905 1890.118, 1180.646 2026.902, 1296.159 2123.231 C 1423.332 2229.282, 1590.983 2274.499, 1756.486 2247.384 C 1843.835 2233.073, 1919.510 2202.429, 1988.748 2153.330 C 2116.508 2062.732, 2203.288 1919.973, 2225.413 1764 C 2229.580 1734.631, 2230.495 1720.422, 2230.473 1685.500 C 2230.448 1645.419, 2228.116 1619.522, 2221.380 1584.500 C 2217.864 1566.221, 2209.350 1532.939, 2205.867 1523.856 C 2200.116 1508.856, 2192.200 1499.718, 2183.772 1498.350 C 2178.264 1497.457, 2169.807 1500.466, 2162.776 1505.821 C 2151.986 1514.040, 2128.994 1531.961, 2116.990 1541.510 C 2075.253 1574.709, 2055.933 1602.219, 2047.963 1639.801 C 2046.307 1647.612, 2045.733 1655.534, 2045.015 1680.500 C 2044.070 1713.362, 2042.537 1730.579, 2038.486 1753.820 C 2016.576 1879.529, 1938.112 1983.161, 1826.003 2034.458 C 1789.342 2051.233, 1751.285 2061.703, 1707 2067.197 C 1690.172 2069.285, 1632.906 2068.959, 1616 2066.680 C 1528.593 2054.893, 1452.954 2018.970, 1391.933 1960.264 C 1330.248 1900.920, 1290.852 1825.754, 1278.958 1744.711 C 1270.365 1686.165, 1276.439 1620.071, 1295.648 1563.103 C 1323.429 1480.710, 1378.635 1411.467, 1452.670 1366.154 C 1511.153 1330.358, 1579.650 1309.764, 1652.792 1305.984 C 1663.632 1305.424, 1676.325 1304.499, 1681 1303.928 C 1715.477 1299.720, 1781.044 1262.461, 1817.410 1226.412 C 1832.684 1211.271, 1841.991 1196.827, 1843.447 1186 C 1844.168 1180.643, 1840.243 1168.411, 1834.855 1159.223 C 1829.569 1150.206, 1818.831 1140.082, 1809.500 1135.315 C 1793.471 1127.127, 1781.844 1125.197, 1741.195 1123.980 C 1723.978 1123.464, 1706.203 1122.603, 1701.695 1122.065 C 1697.188 1121.527, 1686.975 1120.834, 1679 1120.526 C 1671.025 1120.218, 1660.433 1119.728, 1655.461 1119.438 C 1650.490 1119.148, 1646.215 1119.100, 1645.961 1119.332" stroke="none" fill="#040404" fill-rule="evenodd"/><path d="M 1599 1.103 C 1318.982 12.584, 1048.989 93.136, 810.500 236.352 C 715.431 293.442, 630.280 356.766, 545 433.795 C 519.889 456.476, 456.476 519.889, 433.795 545 C 307.976 684.296, 211.021 834.003, 137.502 1002.500 C 69.189 1159.066, 24.748 1330.165, 8.023 1501 C 2.018 1562.330, 0.519 1595.507, 0.519 1667 C 0.519 1728.226, 1.139 1747.617, 4.550 1793 C 30.653 2140.289, 162.921 2466.296, 386.535 2734.500 C 630.230 3026.789, 966.365 3227.253, 1337.193 3301.453 C 1404.335 3314.888, 1467.917 3323.698, 1535.500 3328.932 C 1586.472 3332.879, 1603.566 3333.469, 1667 3333.469 C 1730.434 3333.469, 1747.528 3332.879, 1798.500 3328.932 C 1850.643 3324.894, 1893.340 3319.625, 1948.500 3310.421 C 2130.363 3280.076, 2313.106 3215.781, 2477.232 3124.395 C 2680.679 3011.115, 2859.914 2854.655, 3000.637 2667.500 C 3083.347 2557.500, 3151.939 2437.985, 3205.239 2311 C 3266.775 2164.393, 3307.772 2005.104, 3324.412 1847.963 C 3329.076 1803.915, 3332.966 1748.514, 3332.989 1725.809 C 3332.995 1719.773, 3333.435 1714.849, 3334 1714.500 C 3334.644 1714.102, 3335 1696.803, 3335 1665.882 C 3335 1634.137, 3334.661 1618.091, 3334 1618.500 C 3333.357 1618.897, 3332.996 1615.258, 3332.989 1608.309 C 3332.954 1573.417, 3326.106 1492.890, 3318.420 1437 C 3277.628 1140.377, 3156.966 860.236, 2968.893 625.500 C 2928.854 575.527, 2894.874 537.770, 2845.552 488.448 C 2796.248 439.143, 2758.537 405.204, 2708.500 365.102 C 2442.128 151.619, 2119.370 26.135, 1778.500 3.530 C 1726.187 0.061, 1649.657 -0.974, 1599 1.103 M 2587.462 438.473 C 2575.525 441.072, 2560.262 449.589, 2548.407 460.264 C 2533.255 473.911, 2317.485 691.649, 2309.848 701 C 2289.360 726.088, 2277.463 748.960, 2271.360 775 C 2269.370 783.490, 2268.731 789.807, 2268.022 808 C 2267.523 820.781, 2266.451 834.054, 2265.538 838.727 C 2260.851 862.732, 2248.087 888.237, 2229.807 910.127 C 2221.042 920.623, 1714.447 1425.943, 1704.500 1434.112 C 1685.753 1449.509, 1672.002 1458.530, 1652.228 1468.405 C 1636.388 1476.316, 1624.986 1480.592, 1603.951 1486.512 C 1560.551 1498.724, 1531.303 1515.255, 1505.500 1542.155 C 1478.350 1570.459, 1462.081 1605.095, 1455.312 1649 C 1453.991 1657.566, 1453.539 1666.495, 1453.539 1684 C 1453.539 1710.454, 1454.827 1721.474, 1460.488 1743.464 C 1483.114 1831.361, 1557.260 1891.829, 1651.176 1898.976 C 1697.180 1902.477, 1746.155 1887.298, 1786 1857.188 C 1795.671 1849.880, 1814.518 1831.598, 1822.275 1822 C 1830.547 1811.765, 1841.318 1795.291, 1846.590 1784.809 C 1853.841 1770.392, 1857.643 1760.273, 1864.028 1738.404 C 1876.848 1694.494, 1890.677 1667.145, 1912.163 1643.214 C 1916.748 1638.107, 1961.900 1593.072, 2012.500 1543.137 C 2063.100 1493.202, 2173.125 1383.366, 2257 1299.058 C 2340.875 1214.750, 2414.804 1141.084, 2421.286 1135.356 C 2441.072 1117.874, 2455.716 1107.677, 2474.765 1098.118 C 2497.636 1086.641, 2517.758 1081.700, 2548.519 1080.006 C 2574.126 1078.597, 2587.065 1075.354, 2608.500 1064.973 C 2627.872 1055.590, 2646.892 1042.017, 2668.148 1022.403 C 2673.454 1017.506, 2695.324 995.500, 2716.747 973.500 C 2738.170 951.500, 2785.092 904.475, 2821.017 869 C 2856.942 833.525, 2889.802 800.330, 2894.039 795.234 C 2906.530 780.208, 2912.007 767.033, 2911.993 752.040 C 2911.976 733.396, 2901.750 709.260, 2888.882 697.490 C 2873.699 683.603, 2859.005 679.585, 2817.500 677.971 C 2740.127 674.962, 2726.057 673.379, 2710.359 665.920 C 2693.280 657.804, 2685.005 642.459, 2680.132 609.862 C 2677.939 595.190, 2676.935 585.684, 2674.024 552 C 2671.972 528.265, 2667.348 496.910, 2663.921 483.500 C 2657.618 458.835, 2643.571 444.942, 2618.976 439.046 C 2609.216 436.706, 2596.630 436.478, 2587.462 438.473 M 1636 739.593 C 1568.410 742.306, 1508.044 750.147, 1447.992 764.015 C 1277.153 803.468, 1119.953 891.204, 992.945 1017.984 C 884.225 1126.510, 803.216 1257.324, 756.686 1399.500 C 731.469 1476.550, 717.496 1550.228, 712.927 1630.234 C 711.396 1657.046, 712.248 1723.950, 714.434 1748.500 C 733.752 1965.491, 814.244 2156.794, 952.793 2315 C 968.640 2333.096, 1011.061 2375.743, 1029 2391.614 C 1093.960 2449.084, 1160.809 2494.241, 1236 2531.445 C 1368.279 2596.896, 1512.370 2629.997, 1665 2629.997 C 1904.734 2629.997, 2114.155 2550.338, 2291.953 2391.517 C 2355.303 2334.929, 2403.637 2279.610, 2447.491 2213.500 C 2583.423 2008.581, 2636.645 1747.100, 2591.898 1504.029 C 2580.047 1439.653, 2559.895 1374.020, 2534.013 1315.500 C 2524.901 1294.899, 2496.276 1237.379, 2491.923 1230.926 C 2479.831 1212.995, 2464.169 1209.993, 2441.500 1221.261 C 2427.241 1228.348, 2407.226 1242.890, 2395.316 1254.815 C 2361.995 1288.178, 2350.920 1328.200, 2361.092 1378.500 C 2362.986 1387.870, 2365.569 1395.915, 2380.833 1440 C 2415.728 1540.778, 2429.285 1652.075, 2419.459 1757.094 C 2400.782 1956.714, 2303.850 2140.796, 2149.291 2270.165 C 2040.840 2360.941, 1907.401 2419.427, 1765.500 2438.380 C 1725.263 2443.754, 1713.099 2444.455, 1660 2444.455 C 1608.116 2444.455, 1595.513 2443.769, 1558 2438.907 C 1354.752 2412.563, 1176.746 2308.704, 1055.229 2145.561 C 969.043 2029.851, 914.749 1887.124, 899.431 1736 C 897.299 1714.958, 896.425 1656.449, 897.908 1634 C 911.083 1434.630, 1007.096 1247.069, 1165.377 1111.500 C 1303.909 992.847, 1483.311 925.976, 1663 926.014 C 1761.628 926.035, 1853.979 944.821, 1954.500 985.310 C 1979.500 995.380, 1979.500 995.380, 1992 995.799 C 2006.358 996.280, 2016.773 994.705, 2031.339 989.847 C 2058.008 980.955, 2087.652 961.366, 2106.017 940.502 C 2128.805 914.611, 2138.018 884.177, 2128.831 865.136 C 2123.297 853.665, 2111.243 846.337, 2083.094 837.330 C 2072.890 834.065, 2055.839 827.418, 2042.500 821.504 C 1935.739 774.172, 1831.386 748.159, 1719.676 741.031 C 1702.622 739.943, 1649.876 739.036, 1636 739.593 M 1627.500 1120.570 C 1575.453 1124.782, 1553.769 1127.854, 1525.342 1135.040 C 1503.405 1140.585, 1468.259 1152.064, 1448 1160.299 C 1314.287 1214.650, 1209.197 1312.245, 1147.429 1439.430 C 1108.890 1518.786, 1090.400 1604.214, 1092.329 1694 C 1093.158 1732.578, 1096.150 1760.042, 1103.551 1797 C 1131.199 1935.067, 1207.716 2057.835, 1317.677 2140.556 C 1406.993 2207.745, 1510.396 2246.128, 1623.469 2254.065 C 1645.261 2255.595, 1700.140 2254.750, 1720 2252.578 C 1840.635 2239.390, 1939.162 2197.993, 2028 2123.170 C 2044.542 2109.237, 2078.832 2074.866, 2093.015 2058 C 2156.998 1981.914, 2200.425 1892.914, 2219.881 1798 C 2227.046 1763.042, 2229.990 1735.704, 2230.703 1697.500 C 2231.684 1644.985, 2227.483 1606.440, 2215.338 1556.500 C 2206.339 1519.496, 2199.797 1505.508, 2188.885 1499.941 C 2180.054 1495.436, 2171.625 1498.363, 2154.617 1511.841 C 2148.503 1516.686, 2137.430 1525.333, 2130.011 1531.056 C 2092.870 1559.706, 2076.607 1576.185, 2063.507 1598.445 C 2050.372 1620.763, 2045.004 1642.522, 2044.996 1673.474 C 2044.972 1775.299, 2014.004 1865.154, 1954.377 1936.403 C 1943.320 1949.615, 1918.869 1973.988, 1907 1983.628 C 1856.577 2024.583, 1797.937 2051.459, 1734 2062.918 C 1693.772 2070.128, 1646.703 2070.899, 1606.500 2065.007 C 1451.831 2042.338, 1324.718 1929.612, 1286.608 1781.320 C 1278.691 1750.516, 1275.555 1724.414, 1275.635 1690 C 1275.785 1625.675, 1288.234 1571.512, 1315.512 1516.500 C 1327.449 1492.426, 1335.440 1479.234, 1349.276 1460.756 C 1402.454 1389.738, 1477.443 1341.023, 1568.137 1318.580 C 1598.081 1311.170, 1621.895 1307.837, 1661.187 1305.557 C 1681.817 1304.360, 1686.858 1303.748, 1694.466 1301.515 C 1716.168 1295.146, 1743.255 1281.801, 1769.500 1264.550 C 1810.410 1237.658, 1838.620 1208.796, 1843.141 1189.208 C 1844.721 1182.365, 1843.369 1176.452, 1837.425 1164.208 C 1829.577 1148.042, 1817.092 1136.931, 1799.961 1130.868 C 1787.094 1126.315, 1776.818 1125.013, 1745.500 1123.967 C 1729.550 1123.434, 1708.625 1122.342, 1699 1121.539 C 1672.743 1119.351, 1646.896 1119.001, 1627.500 1120.570 M 0.463 1667 C 0.463 1693.675, 0.592 1704.588, 0.749 1691.250 C 0.907 1677.912, 0.907 1656.088, 0.749 1642.750 C 0.592 1629.412, 0.463 1640.325, 0.463 1667" stroke="none" fill="#fbfbfb" fill-rule="evenodd"/></svg>