<svg xmlns="http://www.w3.org/2000/svg" width="3334" height="3334" viewBox="0 0 3334 3334" version="1.1"><path d="M 1640 1529.014 C 1620.903 1532.384, 1601.562 1540.216, 1585.015 1551.281 C 1574.539 1558.287, 1556.498 1576.555, 1549.740 1587 C 1538.854 1603.827, 1531.800 1621.281, 1528.319 1640 C 1525.637 1654.429, 1525.924 1683.014, 1528.892 1697 C 1535.418 1727.755, 1548.689 1752.018, 1570.218 1772.557 C 1589.948 1791.380, 1613.419 1803.272, 1641.500 1808.674 C 1655.027 1811.276, 1682.361 1811.062, 1695.073 1808.255 C 1707.909 1805.420, 1715.535 1802.794, 1727.673 1797.028 C 1787.267 1768.723, 1820.833 1705.874, 1809.471 1643.875 C 1798.655 1584.859, 1750.864 1538.096, 1691.530 1528.473 C 1678.733 1526.397, 1653.319 1526.664, 1640 1529.014 M 1671.803 2481.746 C 1677.470 2481.925, 1686.470 2481.924, 1691.803 2481.745 C 1697.136 2481.565, 1692.500 2481.419, 1681.500 2481.420 C 1670.500 2481.421, 1666.136 2481.568, 1671.803 2481.746" stroke="none" fill="#c51b1c" fill-rule="evenodd"/><path d="M 1626.500 853.681 C 1527.182 858.690, 1435.109 879.414, 1335.627 919.152 C 1077.976 1022.069, 840.227 1191.663, 601.895 1442.546 C 563.115 1483.369, 507.938 1544.151, 487.103 1569 C 438.306 1627.197, 436.692 1693.934, 482.423 1762.414 C 493.299 1778.700, 502.136 1789.500, 525.040 1814.500 C 596.195 1892.165, 679.012 1975.010, 747.045 2036.583 C 893.419 2169.057, 1062.703 2288.203, 1211.500 2363.478 C 1345.761 2431.400, 1465.994 2467.048, 1600 2478.667 C 1626.208 2480.939, 1720.178 2481.281, 1742.500 2479.186 C 1834.482 2470.551, 1914.730 2450.328, 2011 2411.523 C 2256.207 2312.684, 2487.953 2147.587, 2723.228 1904.129 C 2780.634 1844.725, 2820.138 1802.061, 2836.308 1782 C 2904.177 1697.803, 2900.534 1625.228, 2824.062 1538.017 C 2780.619 1488.473, 2693.640 1398.621, 2642.467 1350.425 C 2527.718 1242.351, 2415.187 1152.564, 2296.963 1074.753 C 2227.408 1028.975, 2172.679 997.206, 2110.500 966.517 C 1971.146 897.737, 1841.182 861.323, 1709 854.023 C 1692.419 853.107, 1642.017 852.898, 1626.500 853.681 M 1632 1061.633 C 1497.448 1070.929, 1378.351 1118.266, 1276.500 1202.931 C 1258.083 1218.240, 1218.320 1257.761, 1202.984 1276 C 1133.684 1358.416, 1087.659 1456.718, 1069.547 1561 C 1063.178 1597.669, 1060.702 1627.287, 1060.730 1666.500 C 1060.766 1718.743, 1066.294 1764.759, 1078.389 1813.500 C 1101.034 1904.753, 1143.204 1987.500, 1204.522 2061 C 1218.909 2078.246, 1255.825 2115.809, 1272 2129.661 C 1313.299 2165.030, 1354.656 2192.447, 1401.500 2215.511 C 1539.195 2283.306, 1696.555 2295.374, 1844.506 2249.486 C 1922.941 2225.159, 1997.860 2183.631, 2062.642 2128.572 C 2080.846 2113.100, 2119.270 2074.297, 2134.504 2056 C 2201.944 1975.002, 2246.179 1883.209, 2265.931 1783.274 C 2272.852 1748.252, 2275.854 1719.670, 2276.670 1681 C 2278.598 1589.710, 2260.968 1503.528, 2223.278 1420 C 2171.566 1305.395, 2082.930 1207.128, 1973.500 1143.081 C 1899.063 1099.515, 1817.791 1073.096, 1728.500 1063.440 C 1714.232 1061.897, 1646.528 1060.629, 1632 1061.633 M 2295.424 1288.099 C 2290.707 1294.228, 2290.707 1294.228, 2291.874 1303.864 C 2293.006 1313.209, 2293.385 1314.194, 2304.426 1336.500 C 2368.698 1466.345, 2394.416 1589.363, 2384.435 1719.201 C 2377.751 1806.148, 2352.833 1897.726, 2312.869 1982.218 C 2304.864 1999.144, 2303.035 2005.837, 2304.804 2011.740 C 2307.514 2020.784, 2320.445 2028.775, 2330.491 2027.614 C 2340.723 2026.431, 2348.421 2021.080, 2394.500 1983.117 C 2496.545 1899.047, 2594.701 1804.837, 2687.392 1702 C 2697.956 1690.280, 2705.050 1681.503, 2706.748 1678.052 C 2710.162 1671.113, 2710.309 1664.324, 2707.184 1657.875 C 2700.994 1645.101, 2565.191 1505.362, 2504.500 1449.317 C 2450.709 1399.643, 2403.598 1359.631, 2354 1321.492 C 2338.097 1309.264, 2304.933 1284.824, 2301.320 1282.672 C 2300.592 1282.238, 2298.337 1284.313, 2295.424 1288.099 M 1028.500 1294.722 C 955.752 1344.086, 882.773 1402.513, 809.500 1470.053 C 761.155 1514.616, 666.212 1611.521, 641.034 1642 C 630.256 1655.047, 626.850 1667.330, 630.978 1678.264 C 634.504 1687.604, 639.205 1693.558, 664.500 1720.723 C 691.454 1749.671, 781.270 1840.034, 805.010 1862.090 C 869.019 1921.560, 928.673 1971.428, 987.500 2014.643 C 1013.522 2033.759, 1048 2057.621, 1048 2056.515 C 1048 2056.220, 1043.947 2047.883, 1038.994 2037.988 C 966.251 1892.672, 935.928 1743.423, 949.554 1597.765 C 958.658 1500.453, 988.016 1400.683, 1036.438 1302.500 C 1041.592 1292.050, 1045.739 1283.429, 1045.654 1283.343 C 1045.570 1283.257, 1037.850 1288.377, 1028.500 1294.722 M 1632 1307.106 C 1615.658 1308.271, 1593.767 1310.849, 1585.063 1312.633 C 1568.733 1315.982, 1558.295 1322.529, 1552.596 1333.002 C 1547.637 1342.112, 1546.923 1346.642, 1545.981 1375 C 1544.786 1410.965, 1542.247 1427.890, 1534.954 1448.500 C 1528.184 1467.635, 1519.571 1481.315, 1506.171 1494.215 C 1488.325 1511.395, 1466.536 1521.204, 1436.495 1525.583 C 1427.396 1526.909, 1419.896 1527.082, 1393 1526.587 C 1366.847 1526.105, 1359.205 1526.268, 1353.869 1527.417 C 1334.165 1531.662, 1322.742 1544.906, 1315.054 1572.418 C 1273.716 1720.352, 1333.074 1871.580, 1466.500 1958.263 C 1523.352 1995.198, 1590.698 2018.342, 1665 2026.480 C 1688.452 2029.049, 1719.440 2030.176, 1734.083 2028.993 C 1772.355 2025.902, 1810.566 2013.194, 1847.738 1991.195 C 1909.731 1954.506, 1963.142 1893.438, 1996.593 1821 C 2038.886 1729.414, 2044.931 1642.337, 2015.014 1555.652 C 1993.730 1493.982, 1948.348 1428.709, 1896.635 1385.388 C 1847.398 1344.141, 1786.739 1317.878, 1721.500 1309.562 C 1694.090 1306.068, 1659.769 1305.126, 1632 1307.106 M 1640 1529.014 C 1620.903 1532.384, 1601.562 1540.216, 1585.015 1551.281 C 1574.539 1558.287, 1556.498 1576.555, 1549.740 1587 C 1538.854 1603.827, 1531.800 1621.281, 1528.319 1640 C 1525.637 1654.429, 1525.924 1683.014, 1528.892 1697 C 1535.418 1727.755, 1548.689 1752.018, 1570.218 1772.557 C 1589.948 1791.380, 1613.419 1803.272, 1641.500 1808.674 C 1655.027 1811.276, 1682.361 1811.062, 1695.073 1808.255 C 1707.909 1805.420, 1715.535 1802.794, 1727.673 1797.028 C 1787.267 1768.723, 1820.833 1705.874, 1809.471 1643.875 C 1798.655 1584.859, 1750.864 1538.096, 1691.530 1528.473 C 1678.733 1526.397, 1653.319 1526.664, 1640 1529.014" stroke="none" fill="#040404" fill-rule="evenodd"/><path d="M 1605 1.071 C 1178.761 16.864, 779.607 192.795, 479.500 497.145 C 237.071 743.002, 78.373 1053.985, 22.080 1393.500 C 5.831 1491.499, -0.817 1580.858, 0.318 1686 C 0.995 1748.677, 2.634 1780.178, 8.070 1835 C 57.011 2328.570, 325.880 2775.671, 741 3053.785 C 829.258 3112.914, 923.967 3163.766, 1025 3206.275 C 1184.718 3273.474, 1363.067 3316.244, 1538.500 3329.419 C 1586.995 3333.061, 1600.392 3333.485, 1667 3333.485 C 1733.542 3333.485, 1748.050 3333.027, 1795 3329.447 C 2147.737 3302.546, 2480.860 3164.839, 2749.831 2934.737 C 2810.664 2882.695, 2878.834 2814.729, 2931.297 2753.813 C 3162.732 2485.088, 3302.092 2149.768, 3328.950 1797 C 3331.359 1765.352, 3332.939 1736.748, 3333.148 1721 C 3333.260 1712.561, 3333.487 1710.698, 3334 1714 C 3334.385 1716.475, 3334.694 1694.875, 3334.687 1666 C 3334.680 1637.125, 3334.371 1615.975, 3334 1619 C 3333.443 1623.545, 3333.297 1622.589, 3333.158 1613.500 C 3332.755 1587.164, 3329.335 1535.733, 3325.410 1497 C 3303.333 1279.149, 3238.159 1066.989, 3134.492 875.500 C 2955.789 545.412, 2671.049 284.511, 2327.390 135.969 C 2117.917 45.428, 1891.527 -0.779, 1662 0.162 C 1641.925 0.244, 1616.275 0.653, 1605 1.071 M 1622.500 853.653 C 1620.300 853.827, 1611.300 854.458, 1602.500 855.055 C 1570.907 857.196, 1529.368 863.016, 1495.068 870.105 C 1435.395 882.438, 1380.400 900.009, 1311.500 928.755 C 1055.620 1035.513, 817.785 1210.176, 578.500 1467.062 C 539.091 1509.370, 491.046 1563.239, 480.727 1576.688 C 449.022 1618.008, 440.949 1665.926, 457.567 1714.159 C 465.097 1736.016, 479.553 1761.163, 497.164 1783.042 C 521.874 1813.742, 615.934 1912.351, 671.937 1966.268 C 713.932 2006.699, 716.981 2009.577, 739.026 2029.589 C 844.974 2125.772, 949.568 2205.975, 1066 2280.313 C 1174.401 2349.524, 1276.932 2400.090, 1374.685 2432.550 C 1437.283 2453.337, 1499.024 2467.314, 1562 2474.956 C 1616.663 2481.589, 1681.113 2483.454, 1733.500 2479.918 C 1852.717 2471.873, 1976.687 2434.038, 2125 2360.434 C 2358.346 2244.630, 2574.647 2071.098, 2815.454 1806.500 C 2841.340 1778.057, 2856.279 1757.398, 2867.879 1734 C 2880.124 1709.300, 2884.352 1692.234, 2884.352 1667.500 C 2884.352 1649.222, 2882.513 1638.424, 2876.406 1620.852 C 2869.288 1600.369, 2854.197 1574.536, 2836.475 1552.499 C 2806.720 1515.501, 2696.549 1400.835, 2638.458 1346.405 C 2532.758 1247.365, 2434.337 1167.881, 2325 1093.256 C 2168.232 986.259, 2025.734 917.395, 1887 881.589 C 1829.683 866.795, 1772.512 857.689, 1714 854.034 C 1699.299 853.116, 1632.780 852.839, 1622.500 853.653 M 1638 1061.592 C 1635.525 1061.801, 1626.975 1062.452, 1619 1063.040 C 1501.957 1071.664, 1383.226 1118.193, 1290.632 1191.723 C 1269.554 1208.462, 1258.092 1218.775, 1236.500 1240.435 C 1202.640 1274.400, 1177.485 1305.752, 1153.486 1343.898 C 1099.554 1429.622, 1069.144 1523.590, 1061.897 1626.906 C 1060.394 1648.328, 1061.293 1705.321, 1063.452 1725.500 C 1075.870 1841.578, 1115.997 1944.584, 1183.961 2034.844 C 1312.970 2206.176, 1520.484 2296.576, 1730.500 2272.935 C 1856.369 2258.767, 1970.997 2208.069, 2068 2123.666 C 2084.404 2109.393, 2115.397 2078.027, 2130.275 2060.643 C 2217.983 1958.161, 2268.371 1833.779, 2275.970 1701 C 2281.283 1608.145, 2263.591 1511.570, 2225.498 1425.500 C 2144.863 1243.303, 1980.717 1111.187, 1787 1072.566 C 1747.091 1064.610, 1720.759 1061.984, 1676.500 1061.548 C 1657.800 1061.364, 1640.475 1061.384, 1638 1061.592 M 2295.589 1288.200 C 2291.191 1294.119, 2291.010 1294.624, 2291.571 1299.449 C 2293.037 1312.046, 2294.152 1315.324, 2302.955 1332.910 C 2335.833 1398.589, 2358.414 1461.645, 2371.924 1525.500 C 2404.046 1677.319, 2384.070 1830.820, 2312.192 1984.500 C 2304.685 2000.552, 2303.284 2005.666, 2304.908 2011.088 C 2307.165 2018.622, 2315.935 2025.718, 2325.027 2027.367 C 2329.258 2028.135, 2338.916 2025.803, 2343.943 2022.800 C 2348.798 2019.899, 2390.958 1986.043, 2416 1964.934 C 2478.881 1911.930, 2533.011 1861.903, 2593.544 1800.847 C 2647.145 1746.784, 2699.882 1689.622, 2705.738 1679.241 C 2709.926 1671.817, 2710.183 1664.763, 2706.532 1657.446 C 2700.463 1645.283, 2583.002 1523.449, 2520.995 1465 C 2446.815 1395.079, 2368.939 1330.394, 2303.347 1284.222 C 2300.195 1282.002, 2300.195 1282.002, 2295.589 1288.200 M 1027.436 1295.652 C 930.925 1361.837, 846.906 1431.914, 753.659 1524 C 713.689 1563.473, 656.846 1623.146, 641.257 1642 C 627.863 1658.199, 626.029 1671.438, 635.085 1686.562 C 640.363 1695.377, 679.575 1737.363, 732.486 1790.854 C 838.612 1898.142, 932.446 1977.772, 1038.139 2050.238 C 1047.777 2056.847, 1047.777 2056.847, 1036.499 2033.673 C 1023.567 2007.101, 1014.028 1985.591, 1004.715 1962 C 918.080 1742.540, 927.503 1525.980, 1033.124 1309.089 C 1039.662 1295.663, 1044.867 1284.534, 1044.691 1284.358 C 1044.515 1284.182, 1036.750 1289.264, 1027.436 1295.652 M 1628 1307.052 C 1578.985 1311.263, 1564.183 1315.809, 1554.320 1329.682 C 1548.049 1338.502, 1546.892 1344.455, 1545.897 1373 C 1544.872 1402.400, 1543.013 1418.861, 1538.918 1434.788 C 1525.771 1485.918, 1494.866 1514.516, 1441.736 1524.717 C 1433.882 1526.224, 1426.590 1526.494, 1393 1526.520 C 1354.963 1526.548, 1353.288 1526.630, 1347.767 1528.715 C 1326.884 1536.603, 1317.312 1554.046, 1308.096 1601 C 1304.403 1619.816, 1302.916 1634.116, 1302.311 1656.634 C 1301.043 1703.861, 1307.995 1744.561, 1324.653 1787.435 C 1346.769 1844.353, 1384.783 1895.624, 1434.235 1935.230 C 1509.303 1995.351, 1609.120 2028.886, 1714.500 2029.386 C 1733.415 2029.476, 1740.831 2029.115, 1749.500 2027.682 C 1849.964 2011.081, 1940.585 1936.763, 1993.595 1827.501 C 2015.084 1783.208, 2026.569 1744.827, 2032.195 1698.500 C 2034.058 1683.164, 2033.743 1640.148, 2031.657 1625 C 2029.112 1606.520, 2024.588 1585.256, 2019.958 1570.015 C 2001.564 1509.471, 1963.020 1447.717, 1914.763 1401.475 C 1867.037 1355.741, 1811.306 1326.540, 1747 1313.573 C 1720.616 1308.253, 1705.817 1306.875, 1671 1306.500 C 1653.125 1306.308, 1633.775 1306.556, 1628 1307.052 M 0.465 1667 C 0.465 1695.875, 0.593 1707.688, 0.749 1693.250 C 0.905 1678.812, 0.905 1655.187, 0.749 1640.750 C 0.593 1626.313, 0.465 1638.125, 0.465 1667" stroke="none" fill="#fbfbfb" fill-rule="evenodd"/></svg>